# xmcd
#
# Track frame offsets: 
#        150
#        17509
#        33093
#        48931
#        70724
#        91606
#        112979
#        132992
#        154918
#        177544
#        195093
#        216347
#        241175
#
# Disc length: 3590 seconds
#
# Revision: 0
# Processed by: cddbd v1.5.2PL0 Copyright (c) Steve Scherf et al.
# Submitted via: ExactAudioCopyFreeDBPlugin 1.0
#
DISCID=9c0e040d
DTITLE=John Waller - CRAZY FAITH
DYEAR=2015
DGENRE=Contemporary Christian
TTITLE0=Crazy Faith (Movie Version)
TTITLE1=Love Has Spoken
TTITLE2=Life Is A Gift
TTITLE3=I Know My God
TTITLE4=Forgive Me
TTITLE5=Epic
TTITLE6=Orphan
TTITLE7=Rain
TTITLE8=Your Word, My Life
TTITLE9=Crazy Faith (Adoption Version)
TTITLE10=While I'm Waiting (Live)
TTITLE11=Our God Reigns Here (Live)
TTITLE12=As For Me And My House (Live)
EXTD=
EXTT0=
EXTT1=
EXTT2=
EXTT3=
EXTT4=
EXTT5=
EXTT6=
EXTT7=
EXTT8=
EXTT9=
EXTT10=
EXTT11=
EXTT12=
PLAYORDER=
